<svg width="410" height="116" viewBox="0 0 410 116" fill="none" xmlns="http://www.w3.org/2000/svg">
<path d="M315.737 115.12C308.509 115.12 302.184 113.313 296.763 109.699C291.448 106.085 287.355 100.982 284.485 94.392C281.722 87.6953 280.34 79.8293 280.34 70.794C280.34 61.7588 281.775 53.9459 284.645 47.3555C287.515 40.6587 291.607 35.5033 296.922 31.8892C302.237 28.2751 308.509 26.468 315.737 26.468C321.583 26.468 326.792 27.6905 331.362 30.1353C335.933 32.5801 339.388 35.9816 341.726 40.3398V0H358.628V113.207H342.843L342.364 100.451C340.026 105.022 336.465 108.636 331.681 111.293C327.004 113.844 321.689 115.12 315.737 115.12ZM320.201 100.451C324.772 100.451 328.652 99.2817 331.841 96.9432C335.03 94.6046 337.475 91.2031 339.175 86.7386C340.876 82.2741 341.726 76.9593 341.726 70.794C341.726 64.4162 340.876 59.0482 339.175 54.69C337.475 50.2255 335.03 46.8771 331.841 44.6449C328.652 42.3063 324.772 41.1371 320.201 41.1371C313.398 41.1371 307.977 43.7945 303.938 49.1094C299.898 54.3179 297.879 61.5462 297.879 70.794C297.879 79.9356 299.898 87.1638 303.938 92.4787C307.977 97.7935 313.398 100.451 320.201 100.451Z" fill="black"/>
<path d="M259.052 113.207C250.974 113.207 245.021 111.346 241.194 107.626C237.368 103.906 235.454 98.1124 235.454 90.2464V8.45061H252.356V88.9708C252.356 92.9038 253.206 95.6144 254.907 97.1026C256.608 98.5907 259.212 99.3348 262.72 99.3348H274.838V113.207H259.052ZM222.539 42.2532V28.3814H274.838V42.2532H222.539Z" fill="black"/>
<path d="M181.762 115.12C173.79 115.12 167.04 113.898 161.513 111.453C156.091 109.008 151.893 105.659 148.916 101.408C145.94 97.0494 144.239 92.0534 143.814 86.4197L161.194 85.6224C162.044 90.2995 164.064 94.0199 167.253 96.7837C170.442 99.5474 175.278 100.929 181.762 100.929C187.077 100.929 191.276 100.079 194.358 98.3781C197.441 96.6773 198.982 93.9668 198.982 90.2464C198.982 88.2267 198.451 86.526 197.388 85.1441C196.431 83.6559 194.518 82.4335 191.648 81.4768C188.778 80.4139 184.526 79.404 178.892 78.4474C170.495 76.8529 163.904 74.9927 159.121 72.8667C154.337 70.7408 150.936 68.0302 148.916 64.735C146.897 61.4398 145.887 57.4536 145.887 52.7766C145.887 45.0169 148.757 38.6922 154.497 33.8025C160.343 28.9128 168.741 26.468 179.689 26.468C187.024 26.468 193.189 27.7435 198.185 30.2947C203.181 32.7395 207.061 36.0879 209.825 40.3398C212.695 44.4854 214.502 49.1624 215.246 54.371L197.866 55.3277C197.335 52.3514 196.272 49.8002 194.677 47.6743C193.189 45.442 191.169 43.7413 188.618 42.572C186.067 41.2964 183.038 40.6587 179.53 40.6587C174.109 40.6587 170.069 41.7216 167.412 43.8476C164.755 45.9735 163.426 48.7373 163.426 52.1388C163.426 54.6899 164.011 56.7627 165.18 58.3572C166.455 59.9516 168.475 61.2803 171.239 62.3433C174.002 63.3 177.67 64.1504 182.241 64.8944C191.063 66.3826 197.973 68.2428 202.968 70.4751C207.964 72.601 211.472 75.2584 213.492 78.4474C215.512 81.6363 216.521 85.5161 216.521 90.0869C216.521 95.4018 215.033 99.9194 212.057 103.64C209.081 107.36 204.988 110.23 199.78 112.25C194.571 114.163 188.565 115.12 181.762 115.12Z" fill="black"/>
<path d="M87.7539 115.12C78.9312 115.12 71.8624 113.1 66.5475 109.061C61.339 105.022 58.7347 99.3348 58.7347 92.0003C58.7347 84.6658 60.9138 78.9788 65.272 74.9395C69.7365 70.794 76.5926 67.8176 85.8405 66.0106L115.019 60.43C115.019 53.8395 113.478 48.9499 110.395 45.7609C107.313 42.4657 102.742 40.8181 96.6828 40.8181C91.2617 40.8181 87.0098 42.0405 83.9271 44.4854C80.8445 46.8239 78.7186 50.3317 77.5493 55.0088L60.1697 53.8927C61.7642 45.3889 65.6972 38.6922 71.9687 33.8025C78.3465 28.9128 86.5846 26.468 96.6828 26.468C108.163 26.468 116.879 29.5506 122.832 35.7158C128.891 41.7748 131.92 50.3317 131.92 61.3866V94.392C131.92 96.4116 132.239 97.8466 132.877 98.697C133.621 99.4411 134.79 99.8131 136.385 99.8131H139.414V113.207C138.883 113.313 138.032 113.419 136.863 113.525C135.694 113.632 134.472 113.685 133.196 113.685C129.582 113.685 126.446 113.1 123.789 111.931C121.238 110.762 119.324 108.848 118.049 106.191C116.773 103.427 116.135 99.76 116.135 95.1892L117.889 95.9864C117.039 99.7068 115.179 103.002 112.309 105.872C109.545 108.742 105.984 111.027 101.626 112.728C97.3738 114.323 92.7498 115.12 87.7539 115.12ZM90.4644 101.726C95.5667 101.726 99.9249 100.77 103.539 98.8565C107.153 96.8368 109.97 94.0731 111.99 90.5653C114.009 87.0574 115.019 83.0713 115.019 78.6068V73.1856L90.1455 77.969C85.0433 78.9257 81.4292 80.467 79.3032 82.593C77.2836 84.6126 76.2737 87.2169 76.2737 90.4058C76.2737 94.0199 77.4962 96.8368 79.941 98.8565C82.4921 100.77 85.9999 101.726 90.4644 101.726Z" fill="black"/>
<path d="M36.5131 113.207C28.4345 113.207 22.4819 111.346 18.6552 107.626C14.8285 103.906 12.9151 98.1124 12.9151 90.2464V8.45061H29.8164V88.9708C29.8164 92.9038 30.6668 95.6144 32.3675 97.1026C34.0683 98.5907 36.6726 99.3348 40.1804 99.3348H52.2983V113.207H36.5131ZM0 42.2532V28.3814H52.2983V42.2532H0Z" fill="black"/>
<path d="M392.175 35.2695C389.752 35.2695 387.456 34.823 385.287 33.9301C383.161 32.9947 381.29 31.7191 379.675 30.1034C378.101 28.4877 376.847 26.6168 375.912 24.4909C375.019 22.365 374.572 20.0689 374.572 17.6028C374.572 15.1367 375.019 12.8407 375.912 10.7148C376.847 8.58882 378.101 6.73925 379.675 5.16605C381.29 3.55033 383.161 2.29602 385.287 1.40312C387.456 0.467707 389.752 0 392.175 0C394.641 0 396.916 0.467707 398.999 1.40312C401.125 2.29602 402.996 3.55033 404.612 5.16605C406.228 6.73925 407.482 8.58882 408.375 10.7148C409.31 12.8407 409.778 15.1367 409.778 17.6028C409.778 20.0689 409.31 22.365 408.375 24.4909C407.482 26.6168 406.228 28.4877 404.612 30.1034C402.996 31.7191 401.125 32.9947 398.999 33.9301C396.916 34.823 394.641 35.2695 392.175 35.2695ZM392.175 31.5065C394.854 31.5065 397.214 30.8687 399.255 29.5932C401.338 28.3176 402.954 26.6381 404.102 24.5547C405.292 22.4287 405.887 20.1114 405.887 17.6028C405.887 15.0942 405.292 12.7982 404.102 10.7148C402.954 8.63134 401.338 6.9731 399.255 5.74005C397.214 4.46449 394.854 3.8267 392.175 3.8267C389.496 3.8267 387.115 4.46449 385.032 5.74005C382.991 6.9731 381.375 8.63134 380.185 10.7148C378.994 12.7982 378.399 15.0942 378.399 17.6028C378.399 20.1114 378.994 22.4287 380.185 24.5547C381.375 26.6381 382.991 28.3176 385.032 29.5932C387.115 30.8687 389.496 31.5065 392.175 31.5065ZM385.032 27.1696V8.09985H391.792C394.259 8.09985 396.193 8.63134 397.596 9.69432C398.999 10.7573 399.701 12.2029 399.701 14.0312C399.701 15.3068 399.34 16.4336 398.617 17.4115C397.936 18.3469 396.958 18.9847 395.683 19.3249L400.339 27.1696H395.874L391.729 19.8989H389.114V27.1696H385.032ZM389.114 16.6462H391.984C393.132 16.6462 394.025 16.4123 394.662 15.9446C395.343 15.4769 395.683 14.8178 395.683 13.9675C395.683 13.1596 395.343 12.5431 394.662 12.1179C394.025 11.6927 393.132 11.4801 391.984 11.4801H389.114V16.6462Z" fill="black"/>
</svg>
